# xmcd
#
# Track frame offsets: 
#        150
#        23930
#        48982
#        86977
#        103772
#        138162
#        166915
#        185492
#        202182
#
# Disc length: 2953 seconds
#
# Revision: 3
# Processed by: cddbd v1.5.2PL0 Copyright (c) Steve Scherf et al.
# Submitted via: ExactAudioCopyFreeDBPlugin 1.0
#
DISCID=7c0b8709
DTITLE=Kendra Shank - Afterglow
DYEAR=1992
DGENRE=Jazz
TTITLE0=Almost Blue
TTITLE1=Photograph
TTITLE2=Tes Yeux Bemol
TTITLE3=Paris Bossa
TTITLE4=There's Never Been A Day
TTITLE5=Afterglow
TTITLE6=Devil May Care
TTITLE7=I Have The Feeling I've Been Here Before
TTITLE8=Left Alone
EXTD=Larry Willis (Piano), Gary Bartz (Alto Sax)
EXTT0=
EXTT1=
EXTT2=
EXTT3=
EXTT4=
EXTT5=
EXTT6=
EXTT7=
EXTT8=
PLAYORDER=
